<svg xmlns="http://www.w3.org/2000/svg" xmlns:xlink="http://www.w3.org/1999/xlink" width="100" height="100" viewBox="0 0 100 100"><defs><clipPath id="a"><rect width="100" height="100" transform="translate(415 2739)" fill="#361616"/></clipPath></defs><g transform="translate(-415 -2739)" clip-path="url(#a)"><g transform="translate(401.1 2724.7)"><path d="M66.5,17.3H54.1A11.928,11.928,0,0,0,42.2,29.2v4.3H26.7a1.793,1.793,0,0,0-1.8,1.8v.1l2.5,51.8A13.31,13.31,0,0,0,40.7,99.9H69.4a17.516,17.516,0,1,0,32.2-13.8,17.188,17.188,0,0,0-8-8.6l2-42.1a1.774,1.774,0,0,0-1.7-1.8H78.3V29.3a11.866,11.866,0,0,0-11.8-12ZM45.8,29.1a8.386,8.386,0,0,1,8.4-8.4H66.6A8.386,8.386,0,0,1,75,29.1v4.3H45.8ZM98.4,98.5a14.034,14.034,0,0,1-26.1-1,14.351,14.351,0,0,1-.8-4.6,14.027,14.027,0,1,1,26.9,5.6ZM92.1,36.9,90.2,76A17.462,17.462,0,0,0,68.4,96.3H40.8A9.787,9.787,0,0,1,31,87L28.6,37H42.3v5.9a1.8,1.8,0,1,0,3.6,0V37H75v5.9a1.8,1.8,0,0,0,3.6,0V37H92.1Z" fill="#7e7e7e"/><path d="M85.5,83.6a1.793,1.793,0,0,0-1.8,1.8v5.7H78a1.8,1.8,0,0,0,0,3.6h5.7v5.7a1.8,1.8,0,1,0,3.6,0V94.7H93a1.8,1.8,0,0,0,0-3.6H87.3V85.4A1.793,1.793,0,0,0,85.5,83.6Z" fill="#7e7e7e"/></g></g></svg>