<svg xmlns="http://www.w3.org/2000/svg" xmlns:xlink="http://www.w3.org/1999/xlink" width="100" height="100" viewBox="0 0 100 100"><defs><clipPath id="a"><rect width="100" height="100" transform="translate(423 3008)" fill="#2e2323"/></clipPath></defs><g transform="translate(-423 -3008)" clip-path="url(#a)"><g transform="translate(426 3011.113)"><path d="M81.782,84.231H9.853A3.853,3.853,0,0,1,6,80.378V30.284a1.284,1.284,0,0,1,2.569,0V80.378a1.284,1.284,0,0,0,1.284,1.284H81.782a1.284,1.284,0,0,0,1.284-1.284V30.284a1.284,1.284,0,0,1,2.569,0V80.378A3.853,3.853,0,0,1,81.782,84.231Z" transform="translate(1.138 7.712)" fill="#7e7e7e"/><path d="M89.342,34.982H66.62a1.284,1.284,0,1,1,0-2.569H89.342V19.569H4.569V32.413H27.291a1.284,1.284,0,0,1,0,2.569H4.569A2.569,2.569,0,0,1,2,32.413V19.569A2.569,2.569,0,0,1,4.569,17H89.342a2.569,2.569,0,0,1,2.569,2.569V32.413A2.569,2.569,0,0,1,89.342,34.982Z" transform="translate(0 4.299)" fill="#7e7e7e"/><path d="M37.284,23.868a1.284,1.284,0,0,1-1.1-1.938c2.817-4.768,9.785-16.1,13.634-18.4A10.532,10.532,0,1,1,60.6,21.611c-1.57.938-4.752,1.694-9.465,2.248a1.284,1.284,0,1,1-.3-2.551c5.7-.67,7.739-1.478,8.447-1.9A7.96,7.96,0,1,0,51.131,5.734c-2.731,1.63-8.371,10.11-12.739,17.5A1.284,1.284,0,0,1,37.284,23.868Z" transform="translate(9.671 0)" fill="#7e7e7e"/><path d="M43.357,23.868a1.284,1.284,0,0,1-1.107-.631c-4.367-7.393-10.008-15.873-12.738-17.5A7.964,7.964,0,1,0,21.36,19.407c.706.423,2.744,1.23,8.447,1.9a1.284,1.284,0,1,1-.3,2.551c-4.71-.554-7.9-1.31-9.465-2.248A10.532,10.532,0,1,1,30.831,3.529c3.853,2.3,10.815,13.633,13.633,18.4a1.284,1.284,0,0,1-1.107,1.938Z" transform="translate(3.599)" fill="#7e7e7e"/><path d="M45.129,84.481H32.284A1.284,1.284,0,0,1,31,83.2V29.4a1.284,1.284,0,0,1,2.569,0V81.913H43.844V29.4a1.284,1.284,0,0,1,2.569,0V83.2A1.284,1.284,0,0,1,45.129,84.481Z" transform="translate(8.249 7.462)" fill="#7e7e7e"/><path d="M45.035,30.569H32.344a1.284,1.284,0,0,1,0-2.569h12.69a1.284,1.284,0,0,1,0,2.569Z" transform="translate(8.266 7.428)" fill="#7e7e7e"/><path d="M49.733,47.265a1.284,1.284,0,0,1-1.171-.758l-12.449-27.7a1.284,1.284,0,1,1,2.343-1.053L49.519,42.37l1.657-5.284a1.284,1.284,0,0,1,1.753-.787l4.842,2.184-9.2-19.652A1.285,1.285,0,0,1,50.9,17.741l10.67,22.79a1.284,1.284,0,0,1-1.69,1.715L53.2,39.235l-2.235,7.129a1.284,1.284,0,0,1-1.15.9Z" transform="translate(9.671 4.299)" fill="#7e7e7e"/><path d="M29.955,47.266h-.077a1.284,1.284,0,0,1-1.15-.9l-2.235-7.129-6.679,3.011a1.284,1.284,0,0,1-1.69-1.715L28.788,17.74a1.285,1.285,0,0,1,2.327,1.089l-9.2,19.652L26.758,36.3a1.284,1.284,0,0,1,1.753.787l1.657,5.284L41.232,17.758a1.284,1.284,0,1,1,2.343,1.053l-12.449,27.7a1.284,1.284,0,0,1-1.171.758Z" transform="translate(4.552 4.299)" fill="#7e7e7e"/></g></g></svg>