<svg xmlns="http://www.w3.org/2000/svg" xmlns:xlink="http://www.w3.org/1999/xlink" width="100" height="100" viewBox="0 0 100 100"><defs><clipPath id="a"><rect width="100" height="100" transform="translate(849 2998)" fill="#632626"/></clipPath></defs><g transform="translate(-849 -2998)" clip-path="url(#a)"><path d="M82,87.243V104.5a1.5,1.5,0,0,0,1.5,1.5h51a1.5,1.5,0,0,0,1.5-1.5v-36a7.524,7.524,0,0,0-.882-3.529L124,44.125V17.5a1.5,1.5,0,0,0-1.5-1.5h-39A1.5,1.5,0,0,0,82,17.5v5.263l-16.948,5.3a1.5,1.5,0,0,0-.983,1.88ZM80.086,35.937l-.9-2.864L82,32.194V57.108l-5.757-18.4,2.863-.9A1.5,1.5,0,0,0,80.086,35.937ZM133,68.5V103h-9a13.516,13.516,0,0,1-13.5-13.216,1.5,1.5,0,0,0-.23-1.124l-9.729-14.4A4.5,4.5,0,1,1,108,69.221l.027.039,8.757,12.119A1.5,1.5,0,0,0,118,82h4.5a1.5,1.5,0,0,0,1.5-1.5v-30l8.471,15.882A4.519,4.519,0,0,1,133,68.5Zm-39,24H91v-63h3A1.5,1.5,0,0,0,95.5,28V25h15v3a1.5,1.5,0,0,0,1.5,1.5h3V73.787l-4.528-6.267a7.565,7.565,0,0,0-.577-.74A9,9,0,1,0,97.638,68.23a7.522,7.522,0,0,0,.417,7.709L107.5,89.923a16.387,16.387,0,0,0,1.8,7.077H95.5V94A1.5,1.5,0,0,0,94,92.5Zm6.073-26.975c-.179.121-.351.25-.517.385a6,6,0,1,1,7.94-.937,7.5,7.5,0,0,0-7.423.553ZM85,19h36V79h-2.233L118,77.939V28a1.5,1.5,0,0,0-1.5-1.5h-3v-3A1.5,1.5,0,0,0,112,22H94a1.5,1.5,0,0,0-1.5,1.5v3h-3A1.5,1.5,0,0,0,88,28V94a1.5,1.5,0,0,0,1.5,1.5h3v3A1.5,1.5,0,0,0,94,100h17.285a16.635,16.635,0,0,0,3.245,3H85Zm-3,6.907V29.05l-5.136,1.608a1.5,1.5,0,0,0-.983,1.88l.9,2.864-2.863.9a1.5,1.5,0,0,0-.983,1.88L82,67.152V77.2L67.377,30.483Z" transform="translate(799.003 2987)" fill="#7d7d7d"/></g></svg>