<svg xmlns="http://www.w3.org/2000/svg" xmlns:xlink="http://www.w3.org/1999/xlink" width="100" height="100" viewBox="0 0 100 100"><defs><clipPath id="a"><rect width="100" height="100" transform="translate(1380 3003)" fill="#6d4c4c"/></clipPath></defs><g transform="translate(-1380 -3003)" clip-path="url(#a)"><g transform="translate(1385 2984.5)"><g transform="translate(0 28.499)"><g transform="translate(0 0)"><path d="M86.995,62.265H85.662V44.048a8.451,8.451,0,0,0-8.442-8.442H40.614l-24.7-7.056-.022,0-.022-.007-.044-.009-.069-.014-.062-.008-.072-.007-.058,0h-.074l-.055,0c-.025,0-.051,0-.076.008l-.051.009-.077.016-.047.013-.077.024-.043.016c-.026.01-.051.02-.076.032l-.039.02c-.025.013-.05.025-.074.04l-.037.023c-.024.015-.047.03-.07.047l-.035.027c-.022.017-.044.034-.064.052l-.034.032c-.02.018-.039.037-.057.057l-.034.038c-.017.019-.034.039-.049.059l-.033.045c-.014.02-.028.04-.041.06s-.021.036-.031.053-.022.04-.033.06-.019.04-.028.061-.018.04-.025.061-.015.044-.023.066-.01.028-.015.042,0,.014,0,.022,0,.014-.007.022l-1.524,6.1H8.443A8.451,8.451,0,0,0,0,44.02c0,.01,0,.019,0,.028V90.255a1.333,1.333,0,1,0,2.666,0V50.2A8.409,8.409,0,0,0,8.443,52.49H77.225A5.783,5.783,0,0,1,83,58.266V67.6H68.33c-.039,0-.077,0-.115.006s-.084.01-.126.017l-.018,0c-.035.007-.069.016-.1.026l-.022.006c-.03.009-.06.02-.089.031l-.034.012c-.025.01-.048.022-.072.034l-.047.022c-.018.01-.036.021-.054.032s-.04.023-.059.036l-.037.027c-.023.016-.046.033-.067.05l-.027.025c-.023.02-.047.04-.069.062s-.025.027-.037.041-.035.037-.051.057-.053.068-.077.1v0L60.115,78.854a1.312,1.312,0,0,0-.125.235c-.013.031-.023.062-.033.093,0,.009-.007.018-.01.028-.01.033-.018.066-.025.1,0,.009,0,.017-.006.026-.006.03-.01.06-.014.09,0,.013,0,.026-.005.039s0,.049,0,.074,0,.038,0,.057,0,.037,0,.055,0,.051,0,.076,0,.025.005.037c0,.031.008.061.014.092,0,.008,0,.017.006.025.007.033.015.067.025.1,0,.009.007.018.01.028.01.031.02.062.033.093a1.327,1.327,0,0,0,.125.235L67.224,91h0a1.377,1.377,0,0,0,.093.122l.034.037q.034.037.07.071l.043.039c.026.022.053.043.08.063l.037.028a1.332,1.332,0,0,0,.124.075l.033.016c.034.017.069.033.1.047l.042.015q.051.018.1.032l.043.011c.036.008.073.015.11.02l.04.006a1.342,1.342,0,0,0,.14.008H83v9.332a5.783,5.783,0,0,1-5.776,5.776H8.443a5.783,5.783,0,0,1-5.776-5.776c0-.007,0-.014,0-.021V95.587a1.333,1.333,0,0,0-2.666,0v5.333c0,.014,0,.027,0,.041a8.451,8.451,0,0,0,8.441,8.4H77.221a8.451,8.451,0,0,0,8.442-8.441h0V91.589H87a4,4,0,0,0,4-4V66.263A4,4,0,0,0,86.995,62.265ZM16.51,31.492l23.519,6.72h0l15.763,4.5H13.7ZM83,52.118a8.408,8.408,0,0,0-5.776-2.294H8.443a5.776,5.776,0,0,1,0-11.552h3.625l-1.111,4.445H8.443a1.333,1.333,0,1,0,0,2.666h67a1.333,1.333,0,0,0,0-2.666H65.5L49.944,38.272H77.221A5.783,5.783,0,0,1,83,44.048Zm5.33,35.473h0a1.334,1.334,0,0,1-1.332,1.332H69.046l-6.22-9.329,6.22-9.331H86.995l.055,0a3.984,3.984,0,0,0,1.277-.228V87.59Zm-1.332-20H85.662V64.931h1.332a1.332,1.332,0,1,1,0,2.664Z" transform="translate(0 -28.499)" fill="#7d7d7d"/></g></g><g transform="translate(68.778 74.706)"><g transform="translate(0 0)"><path d="M391.886,288.493a4.887,4.887,0,1,0,4.887,4.888A4.893,4.893,0,0,0,391.886,288.493Zm0,7.109a2.222,2.222,0,1,1,2.221-2.222A2.224,2.224,0,0,1,391.886,295.6Z" transform="translate(-386.999 -288.493)" fill="#7d7d7d"/></g></g></g></g></svg>