<svg xmlns="http://www.w3.org/2000/svg" xmlns:xlink="http://www.w3.org/1999/xlink" width="100" height="100" viewBox="0 0 100 100"><defs><clipPath id="a"><rect width="100" height="100" transform="translate(679 2689)" fill="#361616"/></clipPath></defs><g transform="translate(-679 -2689)" clip-path="url(#a)"><path d="M65.25,0A24.8,24.8,0,0,0,45,10.542,24.8,24.8,0,0,0,24.75,0C11.565,0,0,12.267,0,26.25,0,39.877,7.695,53.913,22.254,66.84A119.719,119.719,0,0,0,44.312,82.332a1.5,1.5,0,0,0,1.377,0A119.731,119.731,0,0,0,67.739,66.84C82.305,53.913,90,39.877,90,26.25,90,12.267,78.435,0,65.25,0ZM45,79.294C39.491,76.254,3,55.013,3,26.25,3,13.865,13.162,3,24.75,3A21.793,21.793,0,0,1,43.693,14.087a1.562,1.562,0,0,0,2.613,0A21.793,21.793,0,0,1,65.25,3C76.837,3,87,13.865,87,26.25c0,28.764-36.491,50-42,53.044Zm0,0" transform="translate(684 2698)" fill="#7e7e7e"/></g></svg>