<svg xmlns="http://www.w3.org/2000/svg" xmlns:xlink="http://www.w3.org/1999/xlink" width="100" height="100" viewBox="0 0 100 100"><defs><clipPath id="a"><rect width="100" height="100" transform="translate(1392 2760)" fill="#a46060"/></clipPath></defs><g transform="translate(-1392 -2760)" clip-path="url(#a)"><g transform="translate(1388.13 2765)"><g transform="translate(10.87 0)"><path d="M96.373,57.444h0l-8.484-8.484a1.5,1.5,0,0,0-2.121,0l-8.484,8.484A1.5,1.5,0,0,0,79.4,59.564l5.924-5.924V55.5a31.508,31.508,0,0,1-30,31.42V39.006h10.5a1.5,1.5,0,1,0,0-3h-10.5V23.9a12,12,0,1,0-3,0v12.1h-10.5a1.5,1.5,0,1,0,0,3h10.5V86.924a31.508,31.508,0,0,1-30-31.42V53.64l5.924,5.924a1.5,1.5,0,0,0,2.121-2.121L21.9,48.959a1.5,1.5,0,0,0-2.121,0l-8.484,8.484a1.5,1.5,0,0,0,2.121,2.121l5.924-5.924V55.5a34.5,34.5,0,1,0,68.992,0V53.64l5.924,5.924a1.5,1.5,0,0,0,2.121-2.121ZM44.833,12.009a9,9,0,1,1,9,9A9,9,0,0,1,44.833,12.009Z" transform="translate(-10.87 0)" fill="#7e7e7e"/></g></g></g></svg>