<svg xmlns="http://www.w3.org/2000/svg" width="30.723" height="29.9" viewBox="0 0 30.723 29.9"><g transform="translate(0 0)"><path d="M99.22,350.322a2.567,2.567,0,1,0,2.567,2.567A2.567,2.567,0,0,0,99.22,350.322Zm0,3.993a1.426,1.426,0,1,1,1.426-1.426A1.426,1.426,0,0,1,99.22,354.315Z" transform="translate(-89.713 -325.556)" fill="#fff"/><path d="M297.751,350.322a2.567,2.567,0,1,0,2.567,2.567A2.567,2.567,0,0,0,297.751,350.322Zm0,3.993a1.426,1.426,0,1,1,1.426-1.426A1.426,1.426,0,0,1,297.751,354.315Z" transform="translate(-272.935 -325.556)" fill="#fff"/><path d="M30.577,11.161a.87.87,0,0,0-.57-.307l-23.2-.345L6.165,8.4A3.308,3.308,0,0,0,3.1,6.028H.713a.768.768,0,0,0,0,1.532H3.1A1.872,1.872,0,0,1,4.811,8.9L9.337,23.574l-.356.881A3.916,3.916,0,0,0,9.3,27.787,3.27,3.27,0,0,0,11.974,29.4H25.837a.768.768,0,0,0,0-1.532H11.974a1.8,1.8,0,0,1-1.5-.919,2.245,2.245,0,0,1-.178-1.839l.285-.69,15-1.686a4.03,4.03,0,0,0,3.386-3.218l1.711-7.7A.69.69,0,0,0,30.577,11.161Zm-2.994,8.007A2.487,2.487,0,0,1,25.41,21.2L10.584,22.846,7.27,12.043l21.846.345Z" transform="translate(0 -6.028)" fill="#fff"/></g></svg>