<svg xmlns="http://www.w3.org/2000/svg" xmlns:xlink="http://www.w3.org/1999/xlink" width="50" height="50" viewBox="0 0 50 50"><defs><clipPath id="a"><rect width="50" height="50" transform="translate(988 945)" fill="#2d0d0d"/></clipPath></defs><g transform="translate(-988 -945)" clip-path="url(#a)"><g transform="translate(994.429 948.571)"><g transform="translate(0)"><path d="M56.989,28.316c4.561-7.156,3.987-6.263,4.119-6.45A13.708,13.708,0,0,0,63.645,13.9a13.811,13.811,0,1,0-25.012,8.073l4.046,6.348C38.353,28.981,31,30.962,31,35.324c0,1.59,1.038,3.856,5.982,5.622a39.63,39.63,0,0,0,12.852,1.912c9.042,0,18.834-2.551,18.834-7.533C68.667,30.961,61.323,28.982,56.989,28.316ZM40.731,20.587q-.021-.032-.043-.063A11.3,11.3,0,1,1,59.071,20.4c-.121.16.51-.821-9.237,14.474Zm9.1,19.759c-9.877,0-16.323-2.9-16.323-5.022,0-1.424,3.312-3.766,10.651-4.679l4.612,7.237a1.256,1.256,0,0,0,2.118,0L55.5,30.644c7.339.913,10.652,3.255,10.652,4.679C66.156,37.425,59.768,40.346,49.834,40.346Z" transform="translate(-31 0)"/></g><g transform="translate(12.556 7.617)"><path d="M187.278,91a6.278,6.278,0,1,0,6.278,6.278A6.285,6.285,0,0,0,187.278,91Zm0,10.045a3.767,3.767,0,1,1,3.767-3.767A3.771,3.771,0,0,1,187.278,101.045Z" transform="translate(-181 -91)"/></g></g></g></svg>