<svg xmlns="http://www.w3.org/2000/svg" width="58" height="58" viewBox="0 0 58 58"><g transform="translate(-68 -301)"><g transform="translate(68 301)" fill="#fff" stroke="#c76a66" stroke-width="2"><circle cx="29" cy="29" r="29" stroke="none"/><circle cx="29" cy="29" r="28" fill="none"/></g><g transform="translate(81 315)"><path d="M386,197.461a.75.75,0,0,0,.2.728,2.794,2.794,0,0,0,.353.23v-1.691A1,1,0,0,0,386,197.461Z" transform="translate(-362.405 -185.177)" fill="#c76a66"/><path d="M416,256.688v2.293a1.413,1.413,0,0,0,.757-1.027A1.1,1.1,0,0,0,416,256.688Z" transform="translate(-390.498 -241.605)" fill="#c76a66"/><path d="M411,.978V6.587h5.609A6.527,6.527,0,0,0,411,.978Z" transform="translate(-385.781 -0.923)" fill="#c76a66"/><path d="M156.13,7.617a.885.885,0,0,1-.89-.879V0H141.89a.885.885,0,0,0-.89.879V7.734h4.153a3.569,3.569,0,0,1,3.081,1.758h3.149a.879.879,0,1,1,0,1.758h-2.67v1.758h2.67a.879.879,0,1,1,0,1.758h-2.67v1.758h2.67a.879.879,0,1,1,0,1.758h-2.67v1.758h2.67a.879.879,0,1,1,0,1.758h-2.67v1.758h9.79a.879.879,0,1,1,0,1.758h-9.79v2.93A3.46,3.46,0,0,1,148.234,30h13.829a.885.885,0,0,0,.89-.879V7.617Zm-3.56-2.344h-7.12a.879.879,0,1,1,0-1.758h7.12a.879.879,0,1,1,0,1.758Zm6.709,11.27a2.651,2.651,0,0,1-1.963,2.107v.51a.593.593,0,0,1-1.187,0v-.443a3.225,3.225,0,0,1-1.73-.6.582.582,0,0,1-.172-.811.6.6,0,0,1,.821-.17,2.076,2.076,0,0,0,1.08.41V14.583a5.141,5.141,0,0,1-1.1-.623,1.907,1.907,0,0,1-.64-1.892,2.182,2.182,0,0,1,1.508-1.7c.079-.024.157-.044.234-.061V9.785a.593.593,0,0,1,1.187,0v.468a2.281,2.281,0,0,1,1.323.665.581.581,0,0,1-.058.827.6.6,0,0,1-.835-.054,1.078,1.078,0,0,0-.43-.235v2.337c.124.045.247.089.368.132A2.286,2.286,0,0,1,159.279,16.544Z" transform="translate(-132.07)" fill="#c76a66"/><path d="M76,237h5.1v1.7H76Z" transform="translate(-70.752 -223.084)" fill="#c76a66"/><path d="M12.895,162H2.7A1.7,1.7,0,0,0,1,163.7v16.426a1.7,1.7,0,0,0,1.7,1.7h10.2a1.7,1.7,0,0,0,1.7-1.7V163.7A1.7,1.7,0,0,0,12.895,162ZM4.4,179.275a.85.85,0,1,1,.85-.85A.85.85,0,0,1,4.4,179.275Zm0-3.4a.85.85,0,1,1,.85-.85A.85.85,0,0,1,4.4,175.877Zm0-3.115a.85.85,0,1,1,.85-.85A.85.85,0,0,1,4.4,172.762Zm3.4,6.514a.85.85,0,1,1,.85-.85A.85.85,0,0,1,7.8,179.275Zm0-3.4a.85.85,0,1,1,.85-.85A.85.85,0,0,1,7.8,175.877Zm0-3.115a.85.85,0,1,1,.85-.85A.85.85,0,0,1,7.8,172.762Zm4.248,5.664a.85.85,0,0,1-1.7,0v-3.4a.85.85,0,0,1,1.7,0Zm-.85-5.664a.85.85,0,1,1,.85-.85A.85.85,0,0,1,11.2,172.762Zm.85-3.965a.85.85,0,0,1-.85.85H4.4a.85.85,0,0,1-.85-.85v-3.4a.85.85,0,0,1,.85-.85h6.8a.85.85,0,0,1,.85.85Z" transform="translate(0 -151.824)" fill="#c76a66"/></g></g></svg>