<svg xmlns="http://www.w3.org/2000/svg" width="30" height="30" viewBox="0 0 30 30"><g transform="translate(1.857)"><g transform="translate(0 3.838)"><path d="M33.715,69.429a3.715,3.715,0,1,1,3.715-3.715A3.718,3.718,0,0,1,33.715,69.429Z" transform="translate(-30 -62)"/></g><g transform="translate(18.856 3.838)"><path d="M365.715,69.429a3.715,3.715,0,1,1,3.715-3.715A3.718,3.718,0,0,1,365.715,69.429Z" transform="translate(-362 -62)"/></g><g transform="translate(8.5)"><path d="M185.643,9.286a4.643,4.643,0,1,1,4.643-4.643A4.649,4.649,0,0,1,185.643,9.286Z" transform="translate(-181 0)"/></g><path d="M158.429,151.516v6.407a.929.929,0,1,1-1.857,0v-6.407A6.491,6.491,0,0,0,151,157.923v5.572a.928.928,0,0,0,.929.929h2.08l.709,8.56a.928.928,0,0,0,.925.851h3.715a.928.928,0,0,0,.925-.851l.709-8.56h2.08a.928.928,0,0,0,.929-.929v-5.572A6.491,6.491,0,0,0,158.429,151.516Z" transform="translate(-144.358 -143.833)"/></g><path d="M7.429,192.215v-5.572a8.251,8.251,0,0,1,.979-3.841,5.512,5.512,0,0,0-2.836-.8A5.578,5.578,0,0,0,0,187.572v4.643a.928.928,0,0,0,.929.929H1.945l.845,8.45a.929.929,0,0,0,.924.836H7.429a.929.929,0,0,0,.924-.836l.686-6.862a2.783,2.783,0,0,1-1.611-2.517Z" transform="translate(0 -172.43)"/><path d="M375.026,187.572A5.578,5.578,0,0,0,369.454,182a5.512,5.512,0,0,0-2.836.8,8.251,8.251,0,0,1,.979,3.841v5.572a2.783,2.783,0,0,1-1.611,2.517l.686,6.862a.929.929,0,0,0,.924.836h3.715a.929.929,0,0,0,.924-.836l.845-8.45H374.1a.928.928,0,0,0,.929-.929Z" transform="translate(-345.026 -172.43)"/></svg>