<svg xmlns="http://www.w3.org/2000/svg" xmlns:xlink="http://www.w3.org/1999/xlink" width="50" height="50" viewBox="0 0 50 50"><defs><clipPath id="a"><rect width="50" height="50" transform="translate(988 1021)" fill="#301818"/></clipPath></defs><g transform="translate(-988 -1021)" clip-path="url(#a)"><g transform="translate(991.571 1025.286)"><path d="M41.064,32.144,34.953,26.03a4.355,4.355,0,0,0-3.094-1.266,4.567,4.567,0,0,0-3.248,1.354L26.232,28.5A28.967,28.967,0,0,1,19.376,23.5a28.984,28.984,0,0,1-4.994-6.857l2.381-2.379a4.494,4.494,0,0,0,.081-6.344l-6.11-6.11A4.336,4.336,0,0,0,7.639.542a4.572,4.572,0,0,0-3.193,1.3A13.085,13.085,0,0,0,.307,9.381c-1.374,6.71,1.783,13.166,10.9,22.284C21.386,41.843,30.078,42.635,32.5,42.635a8.047,8.047,0,0,0,.889-.041c4.748-.557,6.449-2.665,7.69-4.205A4.628,4.628,0,0,0,41.064,32.144Zm-2.028,4.6c-1.167,1.447-2.269,2.814-5.952,3.246a5.844,5.844,0,0,1-.584.023c-2.166,0-9.971-.736-19.44-10.2C4.655,21.4,1.7,15.635,2.878,9.907A10.32,10.32,0,0,1,6.095,3.88l.078-.058.069-.069a1.969,1.969,0,0,1,1.4-.588,1.731,1.731,0,0,1,1.238.5L14.989,9.78a1.869,1.869,0,0,1-.082,2.634L12.214,15.1l-.044.046a2.148,2.148,0,0,0-.233,2.5A31.874,31.874,0,0,0,17.52,25.36a31.834,31.834,0,0,0,7.69,5.57,2.371,2.371,0,0,0,1.135.3,2.1,2.1,0,0,0,1.593-.733l2.527-2.526a1.961,1.961,0,0,1,1.393-.585,1.746,1.746,0,0,1,1.241.5L39.207,34A2.064,2.064,0,0,1,39.037,36.742Z" transform="translate(0 -0.542)" fill="#000002"/><path d="M140.966,24.957a12.444,12.444,0,0,1,10.248,10.309,1.312,1.312,0,0,0,1.3,1.17,1.362,1.362,0,0,0,.143-.008,1.312,1.312,0,0,0,1.163-1.446A15.053,15.053,0,0,0,141.266,22.35a1.312,1.312,0,1,0-.3,2.606Z" transform="translate(-115.35 -18.528)" fill="#000002"/><path d="M133.958,56.374a7.859,7.859,0,0,1,6.166,6.2,1.312,1.312,0,0,0,1.3,1.171,1.359,1.359,0,0,0,.143-.008,1.312,1.312,0,0,0,1.163-1.446,10.444,10.444,0,0,0-8.474-8.524,1.312,1.312,0,1,0-.3,2.607Z" transform="translate(-109.568 -44.45)" fill="#000002"/></g></g></svg>