<svg xmlns="http://www.w3.org/2000/svg" width="31.374" height="30.01" viewBox="0 0 31.374 30.01"><g transform="translate(0 0)"><g transform="translate(21.826 23.19)"><path d="M344.744,373.333a3.41,3.41,0,1,0,3.41,3.41A3.415,3.415,0,0,0,344.744,373.333Zm0,5.456a2.046,2.046,0,1,1,2.046-2.046A2.049,2.049,0,0,1,344.744,378.789Z" transform="translate(-341.334 -373.333)" fill="#fff"/></g><g transform="translate(8.185 23.19)"><path d="M131.41,373.333a3.41,3.41,0,1,0,3.41,3.41A3.415,3.415,0,0,0,131.41,373.333Zm0,5.456a2.046,2.046,0,1,1,2.046-2.046A2.049,2.049,0,0,1,131.41,378.789Z" transform="translate(-128 -373.333)" fill="#fff"/></g><path d="M27.964,31.127H12.221a3.419,3.419,0,0,1-3.343-2.742L5.443,11.214a.682.682,0,0,0-.668-.548H.682a.682.682,0,0,0,0,1.364H4.215L7.539,28.654a4.787,4.787,0,0,0,4.682,3.837H27.964a.682.682,0,1,0,0-1.364Z" transform="translate(0 -10.666)" fill="#fff"/><g transform="translate(5.456 4.092)"><g transform="translate(0 0)"><path d="M111.08,74.9a.684.684,0,0,0-.512-.231H86.015a.682.682,0,1,0,0,1.364H109.8l-.97,7.756A2.051,2.051,0,0,1,106.8,85.58H88.061a.682.682,0,0,0,0,1.364H106.8a3.416,3.416,0,0,0,3.384-2.987l1.065-8.523A.68.68,0,0,0,111.08,74.9Z" transform="translate(-85.333 -74.667)" fill="#fff"/></g></g></g></svg>