<svg xmlns="http://www.w3.org/2000/svg" width="30.825" height="30" viewBox="0 0 30.825 30">
  <g id="Group_3" data-name="Group 3" transform="translate(0 0)">
    <g id="Group_2" data-name="Group 2">
      <path id="Path_2" data-name="Path 2" d="M99.22,350.322a2.567,2.567,0,1,0,2.567,2.567A2.567,2.567,0,0,0,99.22,350.322Zm0,3.993a1.426,1.426,0,1,1,1.426-1.426A1.426,1.426,0,0,1,99.22,354.315Z" transform="translate(-89.685 -325.456)"/>
      <path id="Path_3" data-name="Path 3" d="M297.751,350.322a2.567,2.567,0,1,0,2.567,2.567A2.567,2.567,0,0,0,297.751,350.322Zm0,3.993a1.426,1.426,0,1,1,1.426-1.426A1.426,1.426,0,0,1,297.751,354.315Z" transform="translate(-272.832 -325.456)"/>
      <path id="Path_4" data-name="Path 4" d="M30.679,11.183a.873.873,0,0,0-.572-.308L6.83,10.529,6.186,8.413A3.32,3.32,0,0,0,3.111,6.028H.715a.772.772,0,0,0,0,1.539h2.4A1.878,1.878,0,0,1,4.827,8.913L9.368,23.649l-.358.885a3.936,3.936,0,0,0,.322,3.347A3.28,3.28,0,0,0,12.014,29.5H25.924a.772.772,0,0,0,0-1.539H12.014a1.8,1.8,0,0,1-1.5-.923,2.256,2.256,0,0,1-.179-1.847l.286-.693L25.674,22.8a4.045,4.045,0,0,0,3.4-3.232l1.716-7.733A.693.693,0,0,0,30.679,11.183Zm-3,8.041a2.5,2.5,0,0,1-2.181,2.039L10.62,22.918,7.294,12.068l21.919.346Z" transform="translate(0 -6.028)"/>
    </g>
  </g>
</svg>
