<svg xmlns="http://www.w3.org/2000/svg" width="32.685" height="30" viewBox="0 0 32.685 30">
  <g id="chat" transform="translate(0 -2.465)">
    <path id="Path_97" data-name="Path 97" d="M9.576,24.617h7.486a.576.576,0,0,0,0-1.152H9.576a.576.576,0,1,0,0,1.152Z" transform="translate(-3.817 -9.585)"/>
    <path id="Path_98" data-name="Path 98" d="M24.548,29.465H9.576a.576.576,0,1,0,0,1.152H24.548a.576.576,0,0,0,0-1.152Z" transform="translate(-3.817 -12.323)"/>
    <path id="Path_99" data-name="Path 99" d="M24.548,35.465H9.576a.576.576,0,1,0,0,1.152H24.548a.576.576,0,0,0,0-1.152Z" transform="translate(-3.817 -15.062)"/>
    <path id="Path_100" data-name="Path 100" d="M29.456,2.5l-18.6-.038A3.234,3.234,0,0,0,7.627,5.7V8.487L3.23,8.5A3.234,3.234,0,0,0,0,11.726V23.243a3.233,3.233,0,0,0,3.23,3.23H6.537V31.92a.545.545,0,0,0,.948.367l5.286-5.815,9.057-.037a3.234,3.234,0,0,0,3.23-3.23v-.062L27.924,26.3a.545.545,0,0,0,.948-.367V20.481h.583a3.234,3.234,0,0,0,3.23-3.23V5.734A3.234,3.234,0,0,0,29.456,2.5ZM23.969,23.2a2.143,2.143,0,0,1-2.143,2.14l-9.3.038a.545.545,0,0,0-.4.178l-4.5,4.95V25.927a.545.545,0,0,0-.545-.545H3.23a2.143,2.143,0,0,1-2.141-2.14V11.726A2.144,2.144,0,0,1,3.231,9.585l4.94-.01h0l13.656-.028a2.143,2.143,0,0,1,2.141,2.141V23.2ZM31.6,17.25a2.143,2.143,0,0,1-2.141,2.14H28.327a.545.545,0,0,0-.545.545v4.584l-2.724-3V11.688a3.234,3.234,0,0,0-3.231-3.23L8.716,8.484V5.695a2.143,2.143,0,0,1,2.14-2.141l18.6.038h0A2.143,2.143,0,0,1,31.6,5.733V17.25Z" transform="translate(0)"/>
  </g>
</svg>
