<svg xmlns="http://www.w3.org/2000/svg" width="12.591" height="16.185" viewBox="0 0 12.591 16.185"><path d="M126.411.947h2.621v.441h.947v-.5A.886.886,0,0,0,129.095,0h-2.745a.886.886,0,0,0-.884.885v.5h.947Zm0,0" transform="translate(-121.426 0)"/><path d="M50.168,167.75H40.924a.424.424,0,0,0-.432.45l.773,9.186a1.011,1.011,0,0,0,1.023.908H48.8a1.011,1.011,0,0,0,1.023-.908L50.6,168.2a.424.424,0,0,0-.432-.45Zm-7.005,9.564h-.031a.484.484,0,0,1-.491-.444l-.484-7.541a.48.48,0,0,1,.461-.5.487.487,0,0,1,.522.443l.484,7.541A.48.48,0,0,1,43.162,177.314Zm2.881-.472a.493.493,0,0,1-.985,0V169.3a.493.493,0,0,1,.985,0Zm2.892-7.513-.462,7.541a.484.484,0,0,1-.491.445h-.029a.48.48,0,0,1-.462-.5l.462-7.541a.493.493,0,0,1,.983.056Zm0,0" transform="translate(-39.25 -162.109)"/><path d="M12.571,77.555l-.321-.932a.62.62,0,0,0-.589-.411H.931a.62.62,0,0,0-.589.411l-.321.932a.384.384,0,0,0,.169.454.409.409,0,0,0,.213.06H12.188a.407.407,0,0,0,.213-.06.384.384,0,0,0,.169-.454Zm0,0" transform="translate(0 -73.877)"/></svg>