<svg xmlns="http://www.w3.org/2000/svg" width="18.929" height="18.929" viewBox="0 0 18.929 18.929"><g transform="translate(-1810.069 -333.283)"><path d="M14.986,92.126a.788.788,0,0,0-.789.789v6.31a.79.79,0,0,1-.789.789H2.366a.789.789,0,0,1-.789-.789V88.182a.789.789,0,0,1,.789-.789h6.31a.789.789,0,0,0,0-1.577H2.366A2.369,2.369,0,0,0,0,88.182V99.224a2.369,2.369,0,0,0,2.366,2.366H13.408a2.369,2.369,0,0,0,2.366-2.366v-6.31a.788.788,0,0,0-.789-.789Zm0,0" transform="translate(1810.069 250.621)"/><path d="M182.482,74.5a.4.4,0,0,0-.108.2l-.558,2.789a.394.394,0,0,0,.387.472.375.375,0,0,0,.077-.008l2.788-.558a.393.393,0,0,0,.2-.108l6.24-6.24-2.788-2.788Zm0,0" transform="translate(1634.983 267.526)"/><path d="M395.325,1.078a1.973,1.973,0,0,0-2.788,0l-1.092,1.092,2.788,2.788,1.092-1.092a1.971,1.971,0,0,0,0-2.788Zm0,0" transform="translate(1433.096 332.781)"/></g></svg>