<svg xmlns="http://www.w3.org/2000/svg" width="29.546" height="22.627" viewBox="0 0 29.546 22.627"><g transform="translate(-9.773 -81.412)"><path d="M14.773,98.725c-5.645,0-10.764,3.088-14.542,8.1a1.17,1.17,0,0,0,0,1.4c3.777,5.023,8.9,8.111,14.542,8.111s10.764-3.088,14.542-8.1a1.17,1.17,0,0,0,0-1.4C25.537,101.813,20.418,98.725,14.773,98.725Zm.4,15.007a6.214,6.214,0,1,1,5.8-5.8A6.218,6.218,0,0,1,15.178,113.732Zm-.187-2.865a3.346,3.346,0,1,1,3.125-3.125A3.341,3.341,0,0,1,14.991,110.867Z" transform="translate(9.773 -15)" fill="#fff"/><rect width="2" height="30" transform="translate(34.672 81.412) rotate(45)" fill="#fff"/></g></svg>