<svg xmlns="http://www.w3.org/2000/svg" width="59.168" height="49.307" viewBox="0 0 59.168 49.307"><g transform="translate(-174.382 -9146.793)"><g transform="translate(174.382 9146.793)"><path d="M54.13,60.742l-6.749-15.8a3.685,3.685,0,0,0-3.4-2.242h-28.8a3.7,3.7,0,0,0-3.4,2.242l-6.749,15.8A8.642,8.642,0,0,0,0,68.59v9.859a3.709,3.709,0,0,0,3.7,3.7H4.935v6.16a3.709,3.709,0,0,0,3.7,3.7h4.935a3.709,3.709,0,0,0,3.7-3.7v-6.16h24.65v6.16a3.709,3.709,0,0,0,3.7,3.7h4.935a3.709,3.709,0,0,0,3.7-3.7v-6.16H55.47a3.709,3.709,0,0,0,3.7-3.7V68.59A8.642,8.642,0,0,0,54.13,60.742ZM14.052,45.913a1.238,1.238,0,0,1,1.133-.751h28.8a1.227,1.227,0,0,1,1.133.74l6.009,14.066c-.2-.012-.393-.023-.578-.023H8.633c-.2,0-.393.012-.578.023Zm.74,42.395a1.238,1.238,0,0,1-1.237,1.237H8.633A1.238,1.238,0,0,1,7.4,88.308v-6.16h7.4Zm35.744,1.237H45.6a1.238,1.238,0,0,1-1.237-1.237v-6.16h7.4v6.16h.012A1.238,1.238,0,0,1,50.536,89.545Zm4.935-9.859H3.7a1.238,1.238,0,0,1-1.237-1.237V68.59a6.165,6.165,0,0,1,6.159-6.16H50.536A6.165,6.165,0,0,1,56.7,68.59v9.859h.012A1.238,1.238,0,0,1,55.47,79.686Z" transform="translate(0 -42.7)" fill="#bbb"/></g><g transform="translate(179.783 9168.287)"><path d="M49.442,234.7a6.742,6.742,0,1,0,6.742,6.742A6.748,6.748,0,0,0,49.442,234.7Zm0,10.79a4.048,4.048,0,1,1,4.048-4.048A4.06,4.06,0,0,1,49.442,245.49Z" transform="translate(-42.7 -234.7)" fill="#bbb"/></g><g transform="translate(214.665 9168.287)"><path d="M369.442,234.7a6.742,6.742,0,1,0,6.742,6.742A6.748,6.748,0,0,0,369.442,234.7Zm0,10.79a4.048,4.048,0,1,1,4.048-4.048A4.06,4.06,0,0,1,369.442,245.49Z" transform="translate(-362.7 -234.7)" fill="#bbb"/></g><g transform="translate(193.165 9176.234)"><path d="M190.851,298.7h-18.9a1.353,1.353,0,1,0,0,2.707h18.885a1.353,1.353,0,0,0,.013-2.707Z" transform="translate(-170.6 -298.7)" fill="#bbb"/></g><g transform="translate(193.165 9171.323)"><path d="M190.851,256h-18.9a1.353,1.353,0,1,0,0,2.707h18.885a1.353,1.353,0,0,0,.013-2.707Z" transform="translate(-170.6 -256)" fill="#bbb"/></g></g></svg>