<svg xmlns="http://www.w3.org/2000/svg" width="22.59" height="22.59" viewBox="0 0 22.59 22.59"><path d="M21.708,18.311H17.276a1.846,1.846,0,0,1-1.172-3.27,7.5,7.5,0,1,0-9.573,0,1.846,1.846,0,0,1-1.172,3.27H.882a.882.882,0,1,1,0-1.765H5.358a.064.064,0,0,0,.074-.05.075.075,0,0,0-.028-.1,9.266,9.266,0,1,1,11.826,0,.075.075,0,0,0-.028.1.064.064,0,0,0,.074.05h4.432a.882.882,0,0,1,0,1.765Zm.882,3.4a.882.882,0,0,0-.882-.882H.882a.882.882,0,0,0,0,1.765H21.708A.882.882,0,0,0,22.59,21.708Z" transform="translate(0 -0.001)" fill="#fff"/></svg>