<svg id="instagram_2_" data-name="instagram(2)" xmlns="http://www.w3.org/2000/svg" width="45" height="45" viewBox="0 0 45 45">
  <path id="Path_72" data-name="Path 72" d="M216.326,211.663A4.663,4.663,0,1,1,211.663,207,4.663,4.663,0,0,1,216.326,211.663Zm0,0" transform="translate(-189.163 -189.163)" fill="#fff"/>
  <path id="Path_73" data-name="Path 73" d="M157.857,138.707a4.632,4.632,0,0,0-2.655-2.655,7.739,7.739,0,0,0-2.6-.481c-1.475-.067-1.918-.082-5.653-.082s-4.178.014-5.653.081a7.744,7.744,0,0,0-2.6.482,4.634,4.634,0,0,0-2.655,2.655,7.741,7.741,0,0,0-.481,2.6c-.067,1.475-.082,1.917-.082,5.653s.015,4.177.082,5.653a7.738,7.738,0,0,0,.481,2.6,4.633,4.633,0,0,0,2.655,2.655,7.731,7.731,0,0,0,2.6.482c1.475.067,1.917.081,5.652.081s4.178-.014,5.653-.081a7.731,7.731,0,0,0,2.6-.482,4.632,4.632,0,0,0,2.655-2.655,7.746,7.746,0,0,0,.482-2.6c.067-1.475.081-1.918.081-5.653s-.014-4.178-.081-5.653A7.73,7.73,0,0,0,157.857,138.707Zm-10.9,15.433a7.183,7.183,0,1,1,7.183-7.183A7.183,7.183,0,0,1,146.953,154.139Zm7.467-12.971a1.679,1.679,0,1,1,1.679-1.679A1.679,1.679,0,0,1,154.42,141.168Zm0,0" transform="translate(-124.453 -124.456)" fill="#fff"/>
  <path id="Path_74" data-name="Path 74" d="M22.5,0A22.5,22.5,0,1,0,45,22.5,22.5,22.5,0,0,0,22.5,0ZM35.342,27.827a9.479,9.479,0,0,1-.6,3.136,6.606,6.606,0,0,1-3.779,3.779,9.486,9.486,0,0,1-3.136.6c-1.378.063-1.818.078-5.327.078s-3.949-.015-5.327-.078a9.486,9.486,0,0,1-3.136-.6,6.606,6.606,0,0,1-3.779-3.779,9.477,9.477,0,0,1-.6-3.136c-.064-1.378-.078-1.818-.078-5.327s.015-3.949.078-5.327a9.48,9.48,0,0,1,.6-3.136,6.611,6.611,0,0,1,3.779-3.779,9.488,9.488,0,0,1,3.136-.6C18.551,9.6,18.991,9.58,22.5,9.58s3.949.015,5.327.078a9.49,9.49,0,0,1,3.136.6,6.608,6.608,0,0,1,3.779,3.779,9.478,9.478,0,0,1,.6,3.136c.063,1.378.078,1.818.078,5.327S35.405,26.449,35.342,27.827Zm0,0" fill="#fff"/>
</svg>
