<svg id="Group_323" data-name="Group 323" xmlns="http://www.w3.org/2000/svg" width="49.093" height="31.272" viewBox="0 0 49.093 31.272">
  <g id="Group_318" data-name="Group 318">
    <path id="Path_62" data-name="Path 62" d="M96.049,30.379a24.678,24.678,0,0,1,0-29.487,2.234,2.234,0,0,1,3.573,2.683,20.182,20.182,0,0,0,0,24.121,2.234,2.234,0,1,1-3.573,2.683Z" transform="translate(-91.16 0)" fill="#fff"/>
  </g>
  <g id="Group_319" data-name="Group 319" transform="translate(40.185 0.001)">
    <path id="Path_63" data-name="Path 63" d="M361.909,30.83a2.236,2.236,0,0,1-.445-3.128,20.182,20.182,0,0,0,0-24.121A2.234,2.234,0,1,1,365.037.9a24.678,24.678,0,0,1,0,29.487,2.235,2.235,0,0,1-3.128.445Z" transform="translate(-361.017 -0.006)" fill="#fff"/>
  </g>
  <g id="Group_320" data-name="Group 320" transform="translate(8.9 4.47)">
    <path id="Path_64" data-name="Path 64" d="M154.919,51.605a15.608,15.608,0,0,1,0-20.849,2.234,2.234,0,0,1,3.329,2.98,11.149,11.149,0,0,0,0,14.89,2.234,2.234,0,0,1-3.329,2.98Z" transform="translate(-150.928 -30.014)" fill="#fff"/>
  </g>
  <g id="Group_321" data-name="Group 321" transform="translate(32.304 4.468)">
    <path id="Path_65" data-name="Path 65" d="M308.836,51.77a2.235,2.235,0,0,1-.175-3.154,11.149,11.149,0,0,0,0-14.89,2.234,2.234,0,0,1,3.329-2.98,15.608,15.608,0,0,1,0,20.849A2.234,2.234,0,0,1,308.836,51.77Z" transform="translate(-308.092 -30.003)" fill="#fff"/>
  </g>
  <g id="Group_322" data-name="Group 322" transform="translate(17.846 8.935)">
    <path id="Path_66" data-name="Path 66" d="M217.7,73.4a6.7,6.7,0,1,1,6.7-6.7A6.708,6.708,0,0,1,217.7,73.4Z" transform="translate(-211 -60)" fill="#fff"/>
  </g>
</svg>
