<svg xmlns="http://www.w3.org/2000/svg" width="23.922" height="28.092" viewBox="0 0 23.922 28.092"><g transform="translate(0 0.001)"><path d="M125.794,158.457a5.352,5.352,0,1,0,5.352,5.352A5.358,5.358,0,0,0,125.794,158.457Zm3.178,4.344-3.834,3.834a.824.824,0,0,1-1.166,0l-1.465-1.465A.824.824,0,0,1,123.671,164l.883.883,3.252-3.252a.824.824,0,1,1,1.165,1.165Zm0,0" transform="translate(-113.833 -149.764)"/><path d="M23.894,7.621V7.6c-.012-.27-.02-.555-.025-.873a2.977,2.977,0,0,0-2.8-2.917A11.553,11.553,0,0,1,13.2.5L13.183.478a1.8,1.8,0,0,0-2.443,0L10.721.5A11.554,11.554,0,0,1,2.858,3.81a2.977,2.977,0,0,0-2.8,2.917c0,.315-.013.6-.025.873V7.65c-.063,3.294-.141,7.392,1.23,11.113a14.146,14.146,0,0,0,3.394,5.286,17.754,17.754,0,0,0,6.641,3.928,2.057,2.057,0,0,0,.272.074,2.01,2.01,0,0,0,.79,0,2.063,2.063,0,0,0,.273-.075,17.765,17.765,0,0,0,6.634-3.93,14.166,14.166,0,0,0,3.394-5.288C24.034,15.027,23.957,10.921,23.894,7.621ZM11.961,21.046a7,7,0,1,1,7-7A7.009,7.009,0,0,1,11.961,21.046Zm0,0" transform="translate(0 0)"/></g></svg>