<svg xmlns="http://www.w3.org/2000/svg" width="30" height="26.556" viewBox="0 0 30 26.556"><path d="M202.893,6.535a2.6,2.6,0,0,0,2.6-2.6V3.08a2.6,2.6,0,0,0-5.193,0v.859A2.6,2.6,0,0,0,202.893,6.535Zm0,0" transform="translate(-187.965 -0.496)"/><path d="M41.983,236.22a2.6,2.6,0,0,0,2.6-2.6v-.859a2.6,2.6,0,0,0-5.193,0v.859A2.6,2.6,0,0,0,41.983,236.22Zm0,0" transform="translate(-36.863 -216.495)"/><path d="M363.8,236.22a2.6,2.6,0,0,0,2.6-2.6v-.859a2.6,2.6,0,1,0-5.193,0v.859A2.6,2.6,0,0,0,363.8,236.22Zm0,0" transform="translate(-339.073 -216.495)"/><path d="M27.405,109.129h-.525a.434.434,0,0,0-.407.271l-.5,1.293-.4-.694a.437.437,0,0,0-.378-.213h-.5a.436.436,0,0,0-.385.225l-.331.614-.435-1.214a.433.433,0,0,0-.41-.281h-.592a2.579,2.579,0,0,0-2.476,1.751l-3-2.113a2.052,2.052,0,0,0-.128-1.788,2.209,2.209,0,0,0-1.506-1.058v-3.688h4.147a.426.426,0,0,0,.434-.417V98.164a2.429,2.429,0,0,0-.666-1.907,2.642,2.642,0,0,0-1.916-.812h-.525a.434.434,0,0,0-.407.271L16,97.009l-.4-.694a.438.438,0,0,0-.378-.213h-.5a.436.436,0,0,0-.385.225L14,96.941l-.434-1.214a.433.433,0,0,0-.41-.281h-.592a2.643,2.643,0,0,0-1.916.812,2.43,2.43,0,0,0-.666,1.907v3.653a.425.425,0,0,0,.434.417h4.147v3.687a2.209,2.209,0,0,0-1.506,1.059,2.051,2.051,0,0,0-.128,1.788l-3,2.113a2.579,2.579,0,0,0-2.475-1.751H6.933a.434.434,0,0,0-.406.271l-.5,1.293-.4-.694a.437.437,0,0,0-.378-.213H4.745a.436.436,0,0,0-.385.225l-.331.614-.435-1.215a.433.433,0,0,0-.41-.281H2.592a2.641,2.641,0,0,0-1.916.812,2.428,2.428,0,0,0-.666,1.907V115.5a.426.426,0,0,0,.434.417H9.606a.425.425,0,0,0,.434-.417v-3.652a.07.07,0,0,1,0-.01l3.356-2.365a2.273,2.273,0,0,0,3.205,0l3.355,2.365s0,.007,0,.01V115.5a.425.425,0,0,0,.434.417h9.162a.425.425,0,0,0,.434-.417v-3.651a2.428,2.428,0,0,0-.666-1.907,2.643,2.643,0,0,0-1.916-.812Zm0,0" transform="translate(0.002 -89.362)"/></svg>