<svg xmlns="http://www.w3.org/2000/svg" xmlns:xlink="http://www.w3.org/1999/xlink" width="30" height="30" viewBox="0 0 30 30"><defs><clipPath id="a"><path d="M0,0H30V30H0Z" transform="translate(0)"/></clipPath></defs><g clip-path="url(#a)"><g transform="translate(2.4)"><path d="M94.391,14.718a7.121,7.121,0,0,0,5.2-2.156,7.12,7.12,0,0,0,2.156-5.2,7.122,7.122,0,0,0-2.156-5.2,7.357,7.357,0,0,0-10.407,0,7.121,7.121,0,0,0-2.156,5.2,7.12,7.12,0,0,0,2.156,5.2A7.122,7.122,0,0,0,94.391,14.718Zm0,0" transform="translate(-82.062 0)"/><path d="M24.965,256.052a18.492,18.492,0,0,0-.243-1.931,15.446,15.446,0,0,0-.466-1.941,9.679,9.679,0,0,0-.783-1.81,6.818,6.818,0,0,0-1.181-1.568,5.2,5.2,0,0,0-1.7-1.086,5.77,5.77,0,0,0-2.166-.4,2.177,2.177,0,0,0-1.174.507c-.352.234-.764.5-1.223.8a6.947,6.947,0,0,1-1.583.71,6.039,6.039,0,0,1-3.872,0,6.931,6.931,0,0,1-1.582-.71c-.455-.3-.867-.567-1.224-.8a2.174,2.174,0,0,0-1.174-.507,5.762,5.762,0,0,0-2.166.4,5.191,5.191,0,0,0-1.7,1.086,6.818,6.818,0,0,0-1.181,1.568,9.7,9.7,0,0,0-.783,1.811A15.483,15.483,0,0,0,.3,254.121a18.435,18.435,0,0,0-.243,1.931c-.04.585-.06,1.191-.06,1.8A5.124,5.124,0,0,0,1.479,261.7a5.269,5.269,0,0,0,3.812,1.416H19.734a5.268,5.268,0,0,0,3.812-1.416,5.121,5.121,0,0,0,1.48-3.839c0-.616-.021-1.223-.061-1.8Zm0,0" transform="translate(0 -233.116)"/></g></g></svg>