<svg xmlns="http://www.w3.org/2000/svg" width="58.42" height="49.307" viewBox="0 0 58.42 49.307"><g transform="translate(-1388.505 -9148.88)"><path d="M62.165,47H14.255A5.43,5.43,0,0,0,9,52.538v26a5.374,5.374,0,0,0,5.255,5.475H41.707a10.679,10.679,0,0,0-.162,1.859,10.513,10.513,0,1,0,20.879-1.833,5.406,5.406,0,0,0,5-5.5v-26A5.43,5.43,0,0,0,62.165,47ZM10.419,55.515H66v5.322H10.419ZM52.058,94.985a9.094,9.094,0,1,1,9.094-9.094,9.094,9.094,0,0,1-9.094,9.094Zm7.2-16.761c-.237-.255-.591-.5-.828-.721V74.99a6.327,6.327,0,0,0-12.654,0V77.5c-.355.225-.591.466-.946.721V74.99a7.214,7.214,0,0,1,14.428,0ZM57.013,76.6a10.649,10.649,0,0,0-4.908-1.22A10.293,10.293,0,0,0,47.2,76.6V74.99a4.908,4.908,0,0,1,9.816,0Zm5.152,6h-.112a11.1,11.1,0,0,0-1.374-2.739V74.99a8.633,8.633,0,0,0-17.266,0v4.867A11.012,11.012,0,0,0,42.064,82.6H14.255a3.955,3.955,0,0,1-3.836-4.056V62.255H66V78.54A3.955,3.955,0,0,1,62.165,82.6ZM66,54.1H10.419V52.538a4.011,4.011,0,0,1,3.836-4.119H62.165A4.011,4.011,0,0,1,66,52.538Z" transform="translate(1379.505 9101.88)" fill="#bbb"/><path d="M75.4,221.157a4.147,4.147,0,0,0-2.438.791,4.147,4.147,0,0,0-2.438-.791,4.212,4.212,0,1,0,0,8.423,4.147,4.147,0,0,0,2.438-.791,4.147,4.147,0,0,0,2.438.791,4.212,4.212,0,1,0,0-8.423Zm-2.438,5.811a2.945,2.945,0,0,1,0-3.2A2.946,2.946,0,0,1,72.966,226.968Zm-5.348-1.6a2.926,2.926,0,0,1,2.91-2.934,2.874,2.874,0,0,1,1.513.429,4.222,4.222,0,0,0,0,5.012,2.875,2.875,0,0,1-1.513.429A2.926,2.926,0,0,1,67.618,225.369ZM75.4,228.3a2.875,2.875,0,0,1-1.513-.429,4.222,4.222,0,0,0,0-5.012,2.875,2.875,0,0,1,1.513-.429,2.934,2.934,0,1,1,0,5.869Z" transform="translate(1328.289 8948.801)" fill="#bbb"/><path d="M318.343,314.588a6.522,6.522,0,1,0,6.522,6.522,6.522,6.522,0,0,0-6.522-6.522Zm0,11.767a5.245,5.245,0,1,1,5.245-5.245A5.245,5.245,0,0,1,318.343,326.355Z" transform="translate(1114.756 8867.703)" fill="#bbb"/><path d="M359.346,360.025a1.637,1.637,0,0,0-.756,3.091v.845a.639.639,0,1,0,1.277,0v-.745a1.638,1.638,0,0,0-.522-3.19Zm0,1.277a.361.361,0,1,1-.361.361A.361.361,0,0,1,359.346,361.3Z" transform="translate(1072.309 8827.102)" fill="#bbb"/></g></svg>