<svg xmlns="http://www.w3.org/2000/svg" width="58" height="58" viewBox="0 0 58 58"><g transform="translate(-68 -447)"><g transform="translate(68 447)" fill="#fff" stroke="#c76a66" stroke-width="2"><circle cx="29" cy="29" r="29" stroke="none"/><circle cx="29" cy="29" r="28" fill="none"/></g><g transform="translate(58 420.283)"><path d="M127.667,104.071,139.745,97.1l-5.681-3.28-12.078,6.973Z" transform="translate(-92.101 -49.407)" fill="#c76a66"/><path d="M35.1,160.059,23,153.085v13.949l12.1,6.974Z" transform="translate(0 -104.552)" fill="#c76a66"/><rect width="1.322" height="1.322" transform="translate(45.815 62.648)" fill="#c76a66"/><path d="M211,160.059v13.949l6.608-3.821V160.117a2.089,2.089,0,0,1,2.079-2.1h1.733a1.707,1.707,0,0,1,1.629-1.252h-.015v-3.681Z" transform="translate(-174.923 -104.552)" fill="#c76a66"/><rect width="4.243" height="1.461" rx="0.73" transform="translate(47.415 53.188)" fill="#c76a66"/><path d="M47.515,43.848l-5.424-3.131L30.013,47.69l5.424,3.131Z" transform="translate(-6.525 0)" fill="#c76a66"/><path d="M330.636,238h-1.752a1.665,1.665,0,0,1-1.61,1.182h-2.808a1.665,1.665,0,0,1-1.61-1.182H321.1A1.115,1.115,0,0,0,320,239.126v14.058a1.087,1.087,0,0,0,1.105,1.093h9.531a1.1,1.1,0,0,0,1.119-1.093V239.126A1.126,1.126,0,0,0,330.636,238Zm-9.454,3.272a.486.486,0,0,1,.483-.489h2.294a.493.493,0,0,1,.492.489v.328a.488.488,0,0,1-.49.486.469.469,0,0,1-.463-.329h-1.343v1.322h.019a.487.487,0,1,1,0,.974h-.51a.483.483,0,0,1-.483-.486Zm0,4.449a.487.487,0,0,1,.487-.487h2.3a.487.487,0,0,1,.487.487v2.3a.487.487,0,0,1-.487.487h-2.3a.487.487,0,0,1-.487-.487Zm.993,7.234h-.51a.47.47,0,0,1-.483-.47v-2.294a.5.5,0,0,1,.483-.506h2.294a.508.508,0,0,1,.492.506v.469a.489.489,0,1,1-.979,0h-1.317v1.322h.019a.487.487,0,1,1,0,.974Zm3.594-1.9-1.77,1.77a.487.487,0,0,1-.689,0l-.778-.778a.487.487,0,1,1,.689-.689l.434.434,1.426-1.426a.487.487,0,1,1,.689.689Zm0-8.99-1.77,1.77a.487.487,0,0,1-.689,0l-.778-.778a.487.487,0,0,1,.689-.689l.434.434,1.426-1.426a.487.487,0,1,1,.689.689Zm4.307,9.774h-3.058a.487.487,0,0,1,0-.974h3.058a.487.487,0,0,1,0,.974Zm0-4.452h-3.058a.487.487,0,0,1,0-.974h3.058a.487.487,0,0,1,0,.974Zm0-4.452h-3.058a.487.487,0,0,1,0-.974h3.058a.487.487,0,1,1,0,.974Z" transform="translate(-276.34 -183.56)" fill="#c76a66"/></g></g></svg>