<svg xmlns="http://www.w3.org/2000/svg" width="43.143" height="49.307" viewBox="0 0 43.143 49.307"><g transform="translate(-975.428 -9147.646)"><path d="M32.486,49.307a24.472,24.472,0,0,0,17.425-7.222,1.027,1.027,0,0,0-1.452-1.452A22.594,22.594,0,0,1,16.514,8.672a22.58,22.58,0,0,1,31.943,0,1.027,1.027,0,1,0,1.452-1.452A24.64,24.64,0,0,0,7.845,24.653,24.65,24.65,0,0,0,32.486,49.307Zm0,0" transform="translate(967.583 9147.646)" fill="#bbb"/><path d="M1.057,10.566H9.509a1.057,1.057,0,0,0,1.057-1.057V1.057a1.057,1.057,0,1,0-2.113,0v7.4h-7.4a1.057,1.057,0,1,0,0,2.113Zm0,0" transform="translate(1008.005 9147.646)" fill="#bbb"/></g></svg>