<svg xmlns="http://www.w3.org/2000/svg" width="37.194" height="41.658" viewBox="0 0 37.194 41.658"><path d="M48.985,5.831A1.362,1.362,0,0,0,48,4.707L31.258.05a1.361,1.361,0,0,0-.73,0L13.786,4.707A1.361,1.361,0,0,0,12.8,5.831c-.1.7-2.313,17.2,3.37,25.405a26.731,26.731,0,0,0,14.4,10.384,1.366,1.366,0,0,0,.639,0,26.73,26.73,0,0,0,14.4-10.384C51.3,23.028,49.082,6.529,48.985,5.831Zm-7.294,9.632L30.27,26.884a1.361,1.361,0,0,1-1.925,0l-7.061-7.061a1.361,1.361,0,0,1,0-1.925l1.4-1.4a1.361,1.361,0,0,1,1.925,0l4.7,4.7,9.056-9.056a1.361,1.361,0,0,1,1.925,0l1.4,1.4A1.361,1.361,0,0,1,41.691,15.463Z" transform="translate(-12.296 0)" fill="#9e9e9e"/></svg>