<svg xmlns="http://www.w3.org/2000/svg" width="43.104" height="49.307" viewBox="0 0 43.104 49.307"><path d="M64.9,16.867a16.867,16.867,0,0,0-33.733,0c-2.408.3-4.685,1.874-4.685,5.528V31.2c0,4.123,2.886,5.622,5.622,5.622H34.82a.937.937,0,0,0,.937-.937V17.747a.937.937,0,0,0-.937-.937h-1.78a14.993,14.993,0,1,1,29.985,0h-1.78a.937.937,0,0,0-.937.937V35.86a.937.937,0,0,0,.937.937h1.78c-.262,6.437-3.355,7.946-9.53,8.218v-.628a1.874,1.874,0,0,0-1.874-1.874H45.727a1.874,1.874,0,0,0-1.874,1.874v3.045a1.874,1.874,0,0,0,1.874,1.874h5.913a1.874,1.874,0,0,0,1.874-1.874v-.543c5.941-.272,11.076-1.5,11.385-10.148,2.408-.3,4.685-1.874,4.685-5.529V22.4C69.584,18.731,67.316,17.166,64.9,16.867ZM33.883,18.619v16.3H32.055a3.4,3.4,0,0,1-3.748-3.748V22.367a3.406,3.406,0,0,1,3.748-3.748Zm17.757,27.4v1.424H45.727V44.4h5.913ZM67.71,31.2a3.406,3.406,0,0,1-3.748,3.748h-1.78V18.684h1.827a3.4,3.4,0,0,1,3.748,3.748Z" transform="translate(-26.48)" fill="#bbb"/></svg>