<svg xmlns="http://www.w3.org/2000/svg" width="60" height="60" viewBox="0 0 60 60"><g transform="translate(-1658 -18)"><g transform="translate(1658 18)" fill="none" stroke="#000" stroke-width="1"><circle cx="30" cy="30" r="30" stroke="none"/><circle cx="30" cy="30" r="29.5" fill="none"/></g><g transform="translate(1674 32.999)"><g transform="translate(0 14.757)"><g transform="translate(0)"><path d="M25.618,257.323a14.419,14.419,0,0,0-14.29,14.512.621.621,0,1,0,1.243,0,13.049,13.049,0,1,1,26.1,0,.621.621,0,1,0,1.243,0A14.418,14.418,0,0,0,25.618,257.323Z" transform="translate(-11.328 -257.323)"/></g></g><g transform="translate(7.35)"><g transform="translate(0)"><path d="M146.268,0a6.94,6.94,0,1,0,6.94,6.94A6.949,6.949,0,0,0,146.268,0Zm0,12.619a5.679,5.679,0,1,1,5.679-5.679A5.685,5.685,0,0,1,146.268,12.619Z" transform="translate(-139.328 0)"/></g></g></g></g></svg>