<svg xmlns="http://www.w3.org/2000/svg" width="32.728" height="30" viewBox="0 0 32.728 30">
  <path id="heart" d="M23.728,0a9.017,9.017,0,0,0-7.364,3.833A9.017,9.017,0,0,0,9,0C4.205,0,0,4.461,0,9.546,0,14.5,2.8,19.6,8.092,24.306a43.535,43.535,0,0,0,8.021,5.634.546.546,0,0,0,.5,0,43.539,43.539,0,0,0,8.018-5.634c5.3-4.7,8.1-9.8,8.1-14.76,0-5.085-4.205-9.546-9-9.546ZM16.364,28.835c-2-1.106-15.273-8.829-15.273-19.289,0-4.5,3.7-8.455,7.909-8.455a7.925,7.925,0,0,1,6.889,4.032.568.568,0,0,0,.95,0,7.925,7.925,0,0,1,6.889-4.032c4.214,0,7.909,3.951,7.909,8.455,0,10.46-13.269,18.183-15.273,19.289Zm0,0" transform="translate(0 0)"/>
</svg>
