<svg xmlns="http://www.w3.org/2000/svg" width="26.436" height="19.909" viewBox="0 0 26.436 19.909"><g transform="translate(0 0)"><path d="M24.274,18.768A8.114,8.114,0,0,0,18.984,16.9a8.126,8.126,0,0,0-5.3,1.871l-.467.4-.467-.4a8.466,8.466,0,0,0-10.216-.3q-.194.146-.375.3a5.7,5.7,0,0,0,0,8.934l10.372,8.865a1.107,1.107,0,0,0,1.336.029l.036-.029L24.275,27.7A5.7,5.7,0,0,0,24.274,18.768Zm-1.367,7.879h0l-9.686,8.28-9.687-8.28a4.352,4.352,0,0,1,0-6.826,6.253,6.253,0,0,1,7.546-.246q.158.118.3.246l1.152.985a1.141,1.141,0,0,0,1.372,0l1.152-.984a6.253,6.253,0,0,1,7.546-.246q.158.118.3.246A4.319,4.319,0,0,1,22.907,26.647Z" transform="translate(0 -16.896)" fill="#080808"/></g></svg>