<svg xmlns="http://www.w3.org/2000/svg" width="26" height="23.833" viewBox="0 0 26 23.833"><path d="M18.85,0A7.163,7.163,0,0,0,13,3.045,7.163,7.163,0,0,0,7.15,0C3.341,0,0,3.544,0,7.583c0,3.937,2.223,7.991,6.429,11.726A34.585,34.585,0,0,0,12.8,23.785a.434.434,0,0,0,.4,0,34.589,34.589,0,0,0,6.37-4.476C23.777,15.575,26,11.52,26,7.583,26,3.544,22.659,0,18.85,0ZM13,22.907C11.408,22.029.867,15.893.867,7.583.867,4.005,3.8.867,7.15.867a6.3,6.3,0,0,1,5.472,3.2.451.451,0,0,0,.755,0A6.3,6.3,0,0,1,18.85.867c3.348,0,6.283,3.139,6.283,6.717,0,8.309-10.542,14.446-12.133,15.324Zm0,0" transform="translate(0 0)" fill="#fff"/></svg>