<svg id="youtube-logotype" xmlns="http://www.w3.org/2000/svg" width="45" height="45" viewBox="0 0 45 45">
  <g id="Group_356" data-name="Group 356">
    <path id="Path_75" data-name="Path 75" d="M25.676,50.637h1.793v9.706h1.7V50.637h1.827v-1.59H25.676Z" transform="translate(-13.864 -26.507)" fill="#fff"/>
    <path id="Path_76" data-name="Path 76" d="M53.074,51.823a2.064,2.064,0,0,0-1.576.913V49.046H49.973v11.3H51.5v-.815a2.079,2.079,0,0,0,1.576.932,1.207,1.207,0,0,0,1.218-.946,6.7,6.7,0,0,0,.155-1.7V54.465a6.465,6.465,0,0,0-.155-1.691A1.206,1.206,0,0,0,53.074,51.823Zm-.153,6.113c0,.761-.223,1.136-.664,1.136a1.088,1.088,0,0,1-.76-.375V53.566a1.1,1.1,0,0,1,.76-.372c.44,0,.664.39.664,1.149Z" transform="translate(-26.981 -26.507)" fill="#fff"/>
    <path id="Path_77" data-name="Path 77" d="M40.5,61.7c-.338.478-.658.714-.964.714-.2,0-.32-.12-.357-.357a4.705,4.705,0,0,1-.014-.592v-6.2H37.643v6.654a4.291,4.291,0,0,0,.135,1.252.937.937,0,0,0,.982.627A2.443,2.443,0,0,0,40.5,62.767v.918H42.03V55.268H40.5Z" transform="translate(-20.323 -29.856)" fill="#fff"/>
    <path id="Path_78" data-name="Path 78" d="M45.8,31.573c.5,0,.735-.394.735-1.181V26.815c0-.787-.238-1.179-.735-1.179s-.736.392-.736,1.179v3.578C45.063,31.18,45.3,31.573,45.8,31.573Z" transform="translate(-24.322 -13.844)" fill="#fff"/>
    <path id="Path_79" data-name="Path 79" d="M22.5,0A22.5,22.5,0,1,0,45,22.5,22.5,22.5,0,0,0,22.5,0ZM25,10.524h1.529v6.23a3.609,3.609,0,0,0,.018.6c.034.238.154.359.36.359.307,0,.628-.238.969-.718V10.524h1.533v8.461H27.878v-.923A2.462,2.462,0,0,1,26.126,19.1a.942.942,0,0,1-.988-.628A4.276,4.276,0,0,1,25,17.215V10.524Zm-5.79,2.759a3.288,3.288,0,0,1,.48-1.993,2.274,2.274,0,0,1,3.574,0,3.322,3.322,0,0,1,.475,1.993v2.963a3.311,3.311,0,0,1-.475,1.99,2.277,2.277,0,0,1-3.574,0,3.277,3.277,0,0,1-.48-1.99Zm-4.1-5.652,1.207,4.459,1.16-4.459H19.2l-2.045,6.756v4.6h-1.7v-4.6a27.964,27.964,0,0,0-1.04-3.592c-.358-1.054-.732-2.111-1.09-3.164h1.788Zm19.5,26.924A3.172,3.172,0,0,1,31.9,37.022a84.323,84.323,0,0,1-9.4.348,84.319,84.319,0,0,1-9.4-.348,3.17,3.17,0,0,1-2.713-2.467,26.856,26.856,0,0,1-.438-5.934,26.888,26.888,0,0,1,.443-5.934A3.169,3.169,0,0,1,13.1,20.22a84.333,84.333,0,0,1,9.4-.348,84.324,84.324,0,0,1,9.4.348,3.173,3.173,0,0,1,2.714,2.467,26.94,26.94,0,0,1,.434,5.934A26.857,26.857,0,0,1,34.612,34.555Z" fill="#fff"/>
    <path id="Path_80" data-name="Path 80" d="M64.5,55.046a2.166,2.166,0,0,0-1.827.863,3.282,3.282,0,0,0-.471,1.983V60.84a3.249,3.249,0,0,0,.49,1.979,2.182,2.182,0,0,0,1.846.862,2.109,2.109,0,0,0,1.844-.913,2.172,2.172,0,0,0,.356-.914c.014-.153.032-.491.032-.983V60.65H65.218a9.985,9.985,0,0,1-.033,1.033.656.656,0,0,1-.682.611c-.524,0-.78-.389-.78-1.167V59.634h3.051V57.891a3.308,3.308,0,0,0-.472-1.983A2.117,2.117,0,0,0,64.5,55.046Zm.746,3.319H63.723v-.779q0-1.168.765-1.168c.5,0,.76.39.76,1.168Z" transform="translate(-33.585 -29.736)" fill="#fff"/>
  </g>
</svg>
